Coordinates
version=1
nRows=7
nColumns=40
inDegrees=yes

Units are S.I. units (second, meters, Newtons, ...)
If the header above contains a line with 'inDegrees', this indicates whether rotational values are in degrees (yes) or radians (no).

endheader
time	pelvis_tilt	pelvis_list	pelvis_rotation	pelvis_tx	pelvis_ty	pelvis_tz	hip_flexion_r	hip_adduction_r	hip_rotation_r	knee_angle_r	knee_angle_r_beta	ankle_angle_r	subtalar_angle_r	mtp_angle_r	hip_flexion_l	hip_adduction_l	hip_rotation_l	knee_angle_l	knee_angle_l_beta	ankle_angle_l	subtalar_angle_l	mtp_angle_l	lumbar_extension	lumbar_bending	lumbar_rotation	arm_flex_r	arm_add_r	arm_rot_r	elbow_flex_r	pro_sup_r	wrist_flex_r	wrist_dev_r	arm_flex_l	arm_add_l	arm_rot_l	elbow_flex_l	pro_sup_l	wrist_flex_l	wrist_dev_l
     13.75000000	     -3.00301527	     -1.91638482	    179.51484782	      0.24887187	      0.78519221	     -0.93016474	     36.33978091	    -40.18596777	    -20.46727439	     53.57264629	      0.93501907	      4.31118859	      0.00000000	      0.00000000	     32.92433366	    -39.03858536	    -23.54925362	     52.13224764	      0.90987937	      0.64280804	      0.00000000	      0.00000000	    -48.68755064	     -1.40401892	     -1.84524919	     41.06309068	      0.59881677	     29.39569972	      1.24264874	      4.60887777	      0.00000000	      0.00000000	     47.29603321	     -6.02049339	     76.40430022	      4.70447255	     87.43113859	      0.00000000	      0.00000000
     13.75500000	     -3.02554382	     -1.87742982	    179.38537349	      0.24864296	      0.78560796	     -0.93022160	     36.35999299	    -40.00136030	    -20.23238169	     53.53151591	      0.93430121	      4.29249536	      0.00000000	      0.00000000	     32.74802094	    -39.16203851	    -23.78240121	     52.11484582	      0.90957565	      0.65408780	      0.00000000	      0.00000000	    -48.51229987	     -1.45346850	     -1.72879721	     41.01412714	      0.59721902	     29.40487691	      1.21490561	      4.60435466	      0.00000000	      0.00000000	     47.20517087	     -6.00726222	     76.39938009	      4.73052413	     87.43117818	      0.00000000	      0.00000000
     13.76000000	     -2.93718614	     -1.95571818	    179.44381370	      0.24800235	      0.78597092	     -0.93012757	     36.26255140	    -40.12844454	    -20.44393377	     53.34618153	      0.93106651	      4.27348027	      0.00000000	      0.00000000	     32.69211310	    -39.02300081	    -23.88350475	     51.96721826	      0.90699906	      0.63578154	      0.00000000	      0.00000000	    -48.18629796	     -1.50252463	     -1.78271716	     40.74688070	      0.56870090	     29.43581316	      1.19936237	      4.59131133	      0.00000000	      0.00000000	     47.00972107	     -6.00786579	     76.41923833	      4.73024125	     87.43653148	      0.00000000	      0.00000000
     13.76500000	     -2.97418943	     -1.91898455	    179.32946173	      0.24781915	      0.78641531	     -0.93015389	     36.26733028	    -39.95772282	    -20.21410041	     53.31992176	      0.93060819	      4.25217094	      0.00000000	      0.00000000	     32.52056703	    -39.11999099	    -24.05910753	     51.94543974	      0.90661895	      0.64289391	      0.00000000	      0.00000000	    -48.03292477	     -1.54073849	     -1.69138911	     40.71244528	      0.57311122	     29.44595971	      1.19294900	      4.58931288	      0.00000000	      0.00000000	     46.90924280	     -6.00326353	     76.41738591	      4.74477006	     87.43867300	      0.00000000	      0.00000000
     13.77000000	     -2.94323951	     -1.99949702	    179.50487314	      0.24737182	      0.78695977	     -0.92988298	     36.02927535	    -40.15789074	    -20.55382973	     53.14216647	      0.92750578	      4.20090992	      0.00000000	      0.00000000	     32.49948144	    -38.82314854	    -23.86315957	     51.71573646	      0.90260988	      0.62185118	      0.00000000	      0.00000000	    -47.79735307	     -1.50666685	     -1.88409858	     40.50929507	      0.58095061	     29.55338331	      1.24155332	      4.59304785	      0.00000000	      0.00000000	     46.76325814	     -6.05890589	     76.42536643	      4.76039580	     87.43699932	      0.00000000	      0.00000000
     13.77500000	     -2.96835808	     -1.96164093	    179.37690690	      0.24710938	      0.78736972	     -0.92995087	     36.04080759	    -39.96891991	    -20.32327367	     53.10104628	      0.92678809	      4.18410443	      0.00000000	      0.00000000	     32.31557855	    -38.94395999	    -24.09348047	     51.69768810	      0.90229487	      0.63391905	      0.00000000	      0.00000000	    -47.62114021	     -1.55090324	     -1.76581039	     40.45892787	      0.58037151	     29.56257245	      1.21339686	      4.58882056	      0.00000000	      0.00000000	     46.66954192	     -6.04456590	     76.41857671	      4.78609590	     87.43652523	      0.00000000	      0.00000000
     13.78000000	     -2.94788842	     -2.04065197	    179.50990465	      0.24656334	      0.78796100	     -0.92965561	     35.79445809	    -40.13863028	    -20.63843658	     52.89314503	      0.92315953	      4.13602795	      0.00000000	      0.00000000	     32.24811893	    -38.70862202	    -24.00855835	     51.50807999	      0.89898559	      0.60461405	      0.00000000	      0.00000000	    -47.39020794	     -1.53215162	     -1.91517678	     40.24222788	      0.56449332	     29.67224541	      1.23997341	      4.58844017	      0.00000000	      0.00000000	     46.50914443	     -6.05409815	     76.39714120	      4.76817179	     87.41639617	      0.00000000	      0.00000000
